<?xml version="1.0" standalone="no"?>
<!DOCTYPE svg PUBLIC "-//W3C//DTD SVG 1.1//EN" "http://www.w3.org/Graphics/SVG/1.1/DTD/svg11.dtd">
<svg xmlns="http://www.w3.org/2000/svg" width="5187" height="1151" viewBox="0 0 5187 1151" fill="none" className='w-40 pt-8' >
<path d="M807.402 891H822.402V876V527C822.402 455.796 805.687 400.857 768.727 366.119C732.291 331.207 679.627 315 613.402 315C589.394 315 566.026 318.18 543.341 324.56C520.402 331.012 499.204 341.065 479.817 354.7C468.519 362.527 458.284 371.627 449.111 381.963L444.026 353.405C441.354 338.404 431.273 325.774 417.237 319.843L402.917 313.793C373.249 301.257 340.402 323.037 340.402 355.244V826C340.402 861.899 369.504 891 405.402 891H443.402H458.402V876V598C458.402 536.795 469.531 492.252 489.806 462.435C508.523 434.911 543.544 419 600.402 419C639.385 419 664.855 429.044 680.288 446.073C696.117 463.539 705.402 491.561 705.402 533V826C705.402 861.899 734.504 891 770.402 891H807.402ZM876.5 423H955.566V720C955.566 764.72 963.083 801.52 979.767 828.822C995.873 855.177 1017.16 874.43 1043.66 885.787L1043.89 885.888L1044.13 885.98C1070.01 896.044 1097.87 901 1127.57 901C1144.52 901 1162.05 899.243 1180.12 895.783C1183.92 895.195 1187.57 894.556 1191.06 893.865C1218.51 888.427 1232.57 863.125 1232.57 839.098V803V782.691L1213.16 788.663C1205.29 791.083 1194.67 793.608 1181.1 796.2C1167.88 798.073 1155.04 799 1142.57 799C1121.42 799 1105.03 792.594 1092.18 780.395C1080.69 768.247 1073.57 748.422 1073.57 718V423H1175.7C1204.82 423 1230.38 403.643 1238.27 375.621L1247.44 343.067L1252.84 323.886L1232.91 324L1073.57 324.914V217V202H1058.57H1045.82C1015.86 202 989.788 222.469 982.675 251.566L964.725 325H932.987C903.494 325 877.698 344.856 870.151 373.367L861.999 404.162L857.013 423H876.5ZM1391.56 640H1692.89C1728.79 640 1757.89 610.899 1757.89 575V572C1757.89 521.55 1748.57 476.88 1729.38 438.439C1710.85 399.307 1683.59 368.737 1647.67 347.172C1612.22 325.486 1570.07 315 1521.89 315C1472.06 315 1427.56 326.967 1388.9 351.307L1388.85 351.34L1388.8 351.375C1350.86 375.712 1321.42 410.307 1300.35 454.551L1300.31 454.639L1300.27 454.728C1279.82 499.149 1269.89 551.731 1269.89 612C1269.89 673.085 1280.87 725.914 1303.57 769.88L1303.63 770.009L1303.7 770.137C1327.02 813.242 1359.42 846.098 1400.82 868.229L1400.87 868.254L1400.92 868.279C1442.69 890.226 1490.14 901 1542.89 901C1580.24 901 1613.01 897.957 1641.01 891.674C1658.43 888.181 1675.93 883.337 1693.51 877.157C1718.86 868.246 1733.89 843.862 1733.89 818.345V774V751.252L1712.99 760.213C1685.69 771.911 1659.16 780.964 1633.39 787.415C1608.78 793.081 1579.99 796 1546.89 796C1496.72 796 1459.38 781.392 1432.84 753.745C1409.19 727.879 1394.9 690.533 1391.56 640ZM1585.18 434.206L1585.42 434.381L1585.67 434.547C1602.32 445.454 1614.77 460.662 1623.02 480.711C1629.97 497.569 1634.21 517.266 1635.48 540H1394.89C1400.74 502.336 1413.44 473.707 1432.04 453.034C1453.45 429.322 1482.49 417 1520.89 417C1548.72 417 1569.73 423.176 1585.18 434.206ZM2142.35 412L2140.49 426.884C2163.43 429.752 2186.82 414.521 2190.17 389.846L2197.21 338.019L2199.05 324.461L2185.72 321.384C2176.11 319.165 2165.03 317.757 2152.64 317.049C2140.97 315.692 2129.87 315 2119.35 315C2092.66 315 2067.8 320.411 2044.99 331.411C2022.67 341.52 2002.86 355.582 1985.63 373.502C1977.34 381.804 1969.64 390.611 1962.54 399.919L1958.72 362.468C1956.63 341.997 1942.73 324.651 1923.21 318.144C1889.33 306.851 1854.35 332.068 1854.35 367.779V826C1854.35 861.899 1883.45 891 1919.35 891H1957.35H1972.35V876V590C1972.35 564.208 1976.11 541.375 1983.38 521.313C1991.4 500.999 2002.05 484.102 2015.19 470.368L2015.3 470.253L2015.41 470.136C2028.81 455.513 2043.89 444.394 2060.66 436.605C2077.34 428.861 2094.85 425 2113.35 425C2121.97 425 2130.97 425.616 2140.37 426.868L2142.35 412ZM2724.43 891H2739.43V876V527C2739.43 455.792 2722.72 400.85 2685.75 366.113C2649.32 331.205 2596.65 315 2530.43 315C2506.43 315 2483.06 318.18 2460.37 324.56C2437.43 331.013 2416.23 341.067 2396.84 354.704C2385.55 362.53 2375.31 371.629 2366.14 381.963L2361.78 357.457C2358.66 339.929 2346.88 325.171 2330.48 318.242C2295.81 303.595 2257.43 329.043 2257.43 366.675V826C2257.43 861.899 2286.54 891 2322.43 891H2360.43H2375.43V876V598C2375.43 536.795 2386.56 492.252 2406.84 462.435C2425.55 434.911 2460.58 419 2517.43 419C2556.42 419 2581.89 429.044 2597.32 446.073C2613.15 463.539 2622.43 491.561 2622.43 533V826C2622.43 861.899 2651.54 891 2687.43 891H2724.43Z" fill="black" stroke="black" stroke-width="30"/>
<path d="M3260.02 872.676L3260.05 872.655L3260.09 872.634C3296.25 849.49 3323.71 815.686 3342.73 772.041C3362.46 727.625 3372 674.102 3372 612C3372 517.508 3351.32 443.956 3307.28 394.111C3264.18 344.572 3206.91 320 3137 320C3107.1 320 3080.39 323.819 3057.12 331.815L3057.05 331.839L3056.98 331.864C3034.84 339.723 3015.26 350.545 2998.45 364.436L2998.32 364.54L2998.2 364.648C2990.26 371.501 2982.86 378.737 2976 386.355L2972.17 363.048C2969.24 345.241 2957.44 330.151 2940.87 323.015C2905.93 307.971 2867 333.594 2867 371.634V1071C2867 1106.9 2896.1 1136 2932 1136H2970H2985V1121V901C2985 887.838 2984.31 872.436 2982.96 854.85C2982.82 853.02 2982.67 851.222 2982.53 849.456C2987.59 854.324 2992.92 859.041 2998.5 863.609L2998.79 863.843L2999.08 864.063C3015.85 876.454 3035.6 886.443 3058.12 894.185C3081.32 902.158 3107.35 906 3136 906C3183.06 906 3224.6 895.085 3260.02 872.676ZM3041.77 442.828L3041.91 442.743L3042.05 442.655C3060.89 430.665 3086.81 424 3121 424C3166.02 424 3197.18 440.36 3217.35 472.053L3217.4 472.134L3217.45 472.215C3239.33 505.646 3251 551.464 3251 611C3251 649.687 3245.84 683.675 3235.8 713.166L3235.77 713.258L3235.74 713.35C3226.47 741.783 3212.21 763.602 3193.33 779.536L3193.24 779.612L3193.15 779.689C3175.72 794.871 3152.78 803 3123 803C3086.3 803 3059.05 795.403 3039.74 781.806C3020.87 768.052 3006.9 747.713 2998.35 719.633C2989.57 690.798 2985 655.03 2985 612V595.12C2985.66 554.175 2990.87 521.356 3000.09 496.154C3009.08 471.577 3023.07 454.164 3041.77 442.828ZM3565.23 896H3580.23V881V87V65.1239L3559.83 73.008L3503.81 94.6521C3478.75 104.332 3462.23 128.425 3462.23 155.284V831C3462.23 866.899 3491.34 896 3527.23 896H3565.23ZM4163.05 896H4178.05V881V395C4178.05 359.102 4148.95 330 4113.05 330H4075.05H4060.05V345V624C4060.05 664.202 4055.17 697.807 4045.85 725.16L4045.82 725.258L4045.78 725.356C4037.42 751.041 4023.08 770.125 4002.86 783.433C3983.52 795.927 3955.44 803 3917.05 803C3878.82 803 3853.64 793.002 3838.16 775.927C3822.3 758.424 3813.05 730.7 3813.05 690V376.622C3813.05 351.305 3797.03 328.761 3773.12 320.433C3734.45 306.964 3694.05 335.674 3694.05 376.622V696C3694.05 742.799 3701.59 782.367 3717.69 813.832C3733.82 845.359 3757.85 869.04 3789.46 884.479L3789.65 884.57L3789.84 884.656C3821.65 899.113 3859.9 906 3904.05 906C3928.6 906 3952.24 902.85 3974.9 896.499C3997.79 890.751 4018.97 881.41 4038.37 868.481C4049.67 860.946 4059.79 852.206 4068.71 842.286L4068.79 842.707C4074.44 873.577 4101.34 896 4132.72 896H4163.05ZM4347.92 896.634L4347.96 896.643L4347.99 896.651C4376.67 902.945 4410.13 906 4448.21 906C4493.52 906 4533.39 899.829 4567.48 887.045C4601.7 874.213 4628.91 854.977 4648.25 828.945C4667.86 802.555 4677.21 770.25 4677.21 733C4677.21 702.189 4670.4 675.408 4655.69 653.678C4641.47 632.008 4621.18 614.158 4595.5 599.888C4570.7 586.11 4541.01 572.826 4506.57 559.988C4472.89 546.779 4445.94 535.605 4425.66 526.452C4406.67 516.934 4394.49 508.103 4387.7 500.356C4381.46 492.589 4378.21 483.38 4378.21 472C4378.21 457.796 4384.31 446.736 4399 437.822L4399.06 437.784L4399.12 437.745C4415.07 427.843 4439.52 422 4474.21 422C4490.58 422 4506.59 423.573 4522.27 426.709L4522.55 426.766L4522.84 426.812C4538.7 429.349 4554.24 433.155 4569.47 438.23L4574.21 424L4570.17 438.444C4602.5 447.498 4640.41 434.282 4654.71 400.925L4665 376.909L4670.76 363.473L4657.47 357.37C4631.77 345.559 4604.09 336.571 4574.48 330.36C4545.26 323.421 4513.82 320 4480.21 320C4418.25 320 4366.43 332.731 4325.94 359.485L4325.89 359.519L4325.84 359.554C4284.9 387.093 4264.21 426.828 4264.21 477C4264.21 508.587 4271.41 535.879 4287 557.719C4301.93 578.612 4322.84 596.013 4349.08 610.196C4374.46 623.914 4404.74 637.505 4439.83 651L4439.87 651.017L4439.92 651.034C4474.97 664.263 4501.12 675.937 4518.77 686.024L4518.87 686.079L4518.96 686.134C4537.51 696.365 4548.46 705.66 4553.85 713.498C4559.41 721.585 4562.21 730.604 4562.21 741C4562.21 759.984 4554.68 774.87 4538.47 786.805C4522.32 798.041 4493.89 805 4450.21 805C4420.34 805 4390.78 800.881 4361.48 792.619C4332.11 783.473 4307.3 773.773 4286.92 763.584L4265.21 752.73V777V826.54C4265.21 850.47 4278.51 874.239 4302.8 883.336C4316.89 888.613 4331.94 893.038 4347.92 896.634Z" fill="#00BA82" stroke="#00BA82" stroke-width="30"/>
<path d="M177 891H192V876V380.323C192 344.425 162.899 315.323 127 315.323H62H47V330.323V826C47 861.899 76.1015 891 112 891H177ZM79.6387 125.653L81.0786 130.212C82.9928 136.273 85.0553 141.387 87.3799 145.429C89.3854 148.915 92.981 154.125 99.1212 156.611C102.65 158.039 106.71 158.416 110.753 157.26C114.571 156.168 117.325 154.015 119.134 152.114C122.505 148.573 124.191 144.259 125.088 141.278C126.98 134.988 127.521 127.164 126.373 120.395C126.049 118.485 125.522 116.237 124.621 113.927C128.6 80.1347 130.291 61.1031 130.355 52.215C130.366 50.7684 130.338 49.3287 130.234 47.9876C130.153 46.9341 129.956 44.8087 129.182 42.5732C128.827 41.5458 127.882 39.0644 125.625 36.7135C122.834 33.8054 118.043 31.2608 112.195 32.1935C107.541 32.9359 104.682 35.5574 103.658 36.583C102.414 37.8287 101.608 39.0478 101.178 39.7444C99.686 42.1673 98.6692 45.1285 98.0806 46.9112C97.3383 49.1593 96.5659 51.8287 95.7952 54.668C93.4852 63.1789 90.7204 74.9975 88.2505 85.5557C87.4757 88.8676 86.7299 92.0555 86.0363 94.9783C85.8048 95.1085 85.5862 95.2391 85.3811 95.3683C82.9715 96.8859 81.4604 98.7244 80.6833 99.778C79.0596 101.979 78.0707 104.309 77.4855 105.983C76.8522 107.795 76.3286 109.889 76.0912 112.069C75.9711 113.172 75.9 114.515 76.0027 115.991C76.1001 117.392 76.3892 119.46 77.3264 121.715C77.815 122.891 78.5525 124.28 79.6387 125.653ZM90.8931 109.935L86.2238 104.662C86.4333 104.491 86.6558 104.319 86.8915 104.149C87.8966 103.421 89.6238 102.376 91.9462 101.783C91.8741 103.27 91.8023 104.751 91.7312 106.215C91.6747 106.386 91.6218 106.553 91.5723 106.718C91.2836 105.965 91.1479 105.405 91.1021 105.212C91.0293 104.904 91.0008 104.714 91.0008 104.714C91.0008 104.714 91.0188 104.834 91.047 105.111C91.11 105.731 91.1773 106.644 91.248 107.943C91.0595 108.762 90.9554 109.453 90.8931 109.935ZM100.323 50.2969C100.324 50.3043 100.324 50.3122 100.325 50.3207C100.303 50.1489 100.31 50.1255 100.323 50.2969ZM87.7915 103.315C87.7914 103.315 87.7972 103.306 87.8091 103.289C87.7975 103.307 87.7916 103.316 87.7915 103.315Z" fill="#00BA82" stroke="#00BA82" stroke-width="30"/>
<path d="M125.5 300C170.787 300 207.5 336.713 207.5 382V630.5H30.5V300H125.5ZM106.842 125.692C120.128 125.692 96.8768 126.495 106.842 135.997C117.471 144.82 105.61 95.3199 105.61 115.002C105.61 134.006 106.011 116.19 95.3821 125.692C109.369 169.976 118.897 115.002 105.61 115.002C102.78 207.137 113.291 -53.3612 106.842 135.997C131.267 -61.421 95.3821 134.006 95.3821 115.002C85.4173 123.825 95.3821 95.3199 95.3821 115.002C105.61 115.003 105.61 77.2603 106.842 125.692Z" fill="url(#paint0_angular_75_9)"/>
<path d="M0 110C0 49.2487 49.2487 0 110 0H220V110C220 170.751 170.751 220 110 220V220C49.2487 220 0 170.751 0 110V110Z" fill="black"/>
<path d="M4842.71 899.634L4842.75 899.643L4842.78 899.651C4871.46 905.945 4904.92 909 4943 909C4988.31 909 5028.18 902.829 5062.27 890.045C5096.49 877.213 5123.7 857.977 5143.04 831.945C5162.64 805.555 5172 773.25 5172 736C5172 705.189 5165.19 678.408 5150.48 656.679C5136.26 635.009 5115.97 617.158 5090.28 602.888C5065.49 589.11 5035.8 575.826 5001.36 562.989C4967.68 549.779 4940.73 538.605 4920.45 529.452C4901.46 519.933 4889.27 511.102 4882.49 503.356C4876.25 495.589 4873 486.38 4873 475C4873 460.796 4879.1 449.736 4893.78 440.822L4893.85 440.783L4893.91 440.745C4909.86 430.843 4934.31 425 4969 425C4985.37 425 5001.38 426.573 5017.06 429.709L5017.34 429.766L5017.63 429.812C5033.49 432.349 5049.03 436.155 5064.26 441.23L5069 427L5064.96 441.444C5097.29 450.498 5135.2 437.282 5149.49 403.925L5159.79 379.909L5165.55 366.473L5152.26 360.37C5126.56 348.559 5098.88 339.571 5069.27 333.36C5040.05 326.421 5008.61 323 4975 323C4913.04 323 4861.22 335.731 4820.73 362.485L4820.68 362.519L4820.63 362.554C4779.69 390.093 4759 429.828 4759 480C4759 511.587 4766.19 538.879 4781.79 560.719L4794 552L4781.79 560.719C4796.72 581.612 4817.63 599.013 4843.87 613.196C4869.25 626.914 4899.53 640.505 4934.62 654L4934.66 654.017L4934.7 654.034C4969.76 667.263 4995.91 678.937 5013.56 689.024L5013.66 689.079L5013.75 689.134C5032.3 699.364 5043.25 708.66 5048.64 716.498C5054.2 724.585 5057 733.604 5057 744C5057 762.984 5049.47 777.869 5033.27 789.804C5017.11 801.04 4988.68 808 4945 808C4915.13 808 4885.57 803.881 4856.27 795.618C4826.9 786.472 4802.09 776.773 4781.71 766.584L4760 755.729V780V829.539C4760 853.47 4773.3 877.239 4797.59 886.336C4811.68 891.613 4826.72 896.038 4842.71 899.634Z" fill="#00BA82" stroke="#00BA82" stroke-width="30"/>
<defs>
<radialGradient id="paint0_angular_75_9" cx="0" cy="0" r="1" gradientUnits="userSpaceOnUse" gradientTransform="translate(119 462.5) rotate(-117.367) scale(207.751 42.5871)">
<stop/>
<stop offset="1" stop-color="#00BA82"/>
</radialGradient>
</defs>
</svg>