<svg id="OBJECTS" xmlns="http://www.w3.org/2000/svg" viewBox="0 0 600 500"><defs><style>.cls-1,.cls-10,.cls-13,.cls-15,.cls-16,.cls-17,.cls-8{fill:none;stroke-miterlimit:10;}.cls-1{stroke:#fff;}.cls-2{fill:#141d30;}.cls-3{fill:#26395e;}.cls-4{fill:#dedede;}.cls-5{fill:#ababab;}.cls-6{fill:#fff;}.cls-7{fill:#142f61;}.cls-8{stroke:#141d30;stroke-width:0.76px;}.cls-9{fill:#496eb5;}.cls-10{stroke:#496eb5;stroke-width:0.69px;}.cls-11{fill:#ff8c8c;}.cls-12{fill:#d45151;}.cls-13{stroke:#d45151;}.cls-14{fill:#125ec9;}.cls-15{stroke:#ff8c8c;stroke-width:0.71px;}.cls-16,.cls-17{stroke:#142f61;}.cls-16{stroke-width:0.75px;}.cls-18{fill:#0e4899;}</style></defs><g id="body"><circle class="cls-1" cx="300.06" cy="113.78" r="68.37"/><circle class="cls-1" cx="300.06" cy="113.78" r="59.88" transform="translate(7.43 245.5) rotate(-45)"/><polygon class="cls-2" points="300.04 266.1 185.09 289.19 300.04 361.47 414.98 289.19 300.04 266.1"/><path class="cls-3" d="M356.57,268.54l-4.13-8.46,22.13-98-57.38-17.25H282.88L225.5,162l22.13,98-4.13,8.46-22.87,12.53,53.26,38.05a13.91,13.91,0,0,0,20.56-8.29L300,290.24l5.58,20.59a13.91,13.91,0,0,0,20.56,8.29l53.26-38.05Z"/><polygon class="cls-4" points="282.91 147.07 317.16 147.07 300.04 229.91 282.91 147.07"/><polygon class="cls-5" points="283.31 148.98 306.11 228.23 295.81 235.18 283.31 148.98"/><path class="cls-2" d="M343.48,174.79s-10.74-19.16-26.32-27.72L300,229.91l-17.13-82.84c-15.58,8.56-26.32,27.72-26.32,27.72l15.47,9-15.47-.28s13.79,31.19,47.11,60.64c8.45-9.56,29.38-34.75,39.78-60.64l-15.47.28Z"/><polygon class="cls-6" points="284.23 140.63 315.77 140.63 300 155.62 284.23 140.63"/><path class="cls-7" d="M317.16,113.38s2-7.31,3.37-13.68-1.69-9.38-4.12-10.5c-2.11-11.39-9.91-16.14-17.6-16.14a.69.69,0,0,0-.39,1.27A11.88,11.88,0,0,1,302.53,79a29.08,29.08,0,0,0-19.69,3.37c-9.75,5.72-8,9.94-3.37,12.56a90.79,90.79,0,0,0,2.9,18.19Z"/><path class="cls-8" d="M300,229.91A192.53,192.53,0,0,0,308.48,258l-7.73,29.72"/><circle class="cls-4" cx="300.14" cy="257.8" r="3.14"/><path class="cls-4" d="M296.86,286.05a3.14,3.14,0,1,1-3.14-3.14A3.14,3.14,0,0,1,296.86,286.05Z"/><line class="cls-8" x1="286.69" y1="239.85" x2="301.78" y2="253.16"/><line class="cls-8" x1="298.5" y1="262.63" x2="287.81" y2="269.57"/><rect class="cls-9" x="250.99" y="273.41" width="30" height="4.12" transform="translate(79.36 -58.9) rotate(14.83)"/><rect class="cls-9" x="319.08" y="273.41" width="30" height="4.12" transform="matrix(-0.97, 0.26, -0.26, -0.97, 727.54, 456.28)"/><polygon class="cls-6" points="343.02 370.56 364.74 382.94 360.6 409.03 333.11 392.67 343.02 370.56"/><path class="cls-2" d="M358,377.84l1.43,20.6-5-3.92-10,8.66,10.69,7.06,8.31,21.93,3.66,13.57a2.44,2.44,0,0,0,4.07,1.09,26,26,0,0,0,7.66-18,106.73,106.73,0,0,0-2.54-27.09l3.91.65,1.45-17.61-4.15-.29A24.61,24.61,0,0,0,358,377.84Z"/><path class="cls-3" d="M159.86,310.74c4.12-21.34,33.37-30,61.12-15.15s128.63,71,128.63,71L332.55,411.2c-11-3.71-12.14-8.77-21-12-7.26-2.67-9.42.71-20.95-3.23s-15.29-8.24-21.94-10.55c-10.54-3.65-20.36-2.61-30.13-5.92-16.47-5.58-30.64-10.41-37.84-12.92C171.51,356.39,155.73,332.07,159.86,310.74Z"/><path class="cls-2" d="M324.29,401.35l10.16-43.2,8.42,4.67Z"/><line class="cls-8" x1="342.87" y1="371.82" x2="237.4" y2="304.51"/><line class="cls-10" x1="376.89" y1="386.33" x2="375.67" y2="399.38"/><path class="cls-9" d="M332.55,411.2a34.06,34.06,0,0,1-10.11-5.27l18-44.46,9.19,5.1Z"/><path class="cls-2" d="M380.41,399.92l1.25-15.15-4.15-.29A24.61,24.61,0,0,0,358,377.84l.09,1.33-10.94-6.24,2.43-6.36s-32.17-17.89-65.17-36.14l-66.28,42.12,20.41,6.94c9.77,3.31,19.59,2.27,30.13,5.92,6.65,2.31,10.41,6.61,21.94,10.55s13.69.56,20.95,3.23c8.82,3.24,10,8.3,21,12l5.87-15.37L347,401l-2.57,2.23,10.69,7.06.28.75,20.88-9.25h0Z"/><path class="cls-3" d="M440.21,310.74c-4.12-21.34-33.37-30-61.12-15.15s-128.63,71-128.63,71l17.06,44.63c11-3.71,12.14-8.77,21-12,7.26-2.67,9.42.71,20.95-3.23s15.29-8.24,21.94-10.55c10.54-3.65,20.36-2.61,30.13-5.92,16.47-5.58,30.64-10.41,37.84-12.92C428.56,356.39,444.34,332.07,440.21,310.74Z"/><path class="cls-2" d="M275.78,401.35l-10.16-43.2-8.42,4.67Z"/><line class="cls-8" x1="257.2" y1="371.82" x2="362.67" y2="304.51"/><polygon class="cls-6" points="257.05 370.56 235.33 382.94 239.47 409.03 266.96 392.67 257.05 370.56"/><path class="cls-2" d="M242,377.84l-1.43,20.6,5-3.92,10,8.66-10.69,7.06-8.31,21.93L233,445.74a2.44,2.44,0,0,1-4.07,1.09,26,26,0,0,1-7.66-18,106.73,106.73,0,0,1,2.54-27.09l-3.91.65-1.45-17.61,4.15-.29A24.61,24.61,0,0,1,242,377.84Z"/><line class="cls-10" x1="223.18" y1="386.33" x2="224.4" y2="399.38"/><path class="cls-9" d="M267.52,411.2a34.06,34.06,0,0,0,10.11-5.27l-18-44.46-9.19,5.1Z"/><path class="cls-5" d="M126.09,259.44c-5.73-3.14,6.09-30.74,6.09-30.74l9.95,4.29S131.86,262.61,126.09,259.44Z"/><path class="cls-11" d="M146.3,234.78l-21.82-9.4a12.65,12.65,0,0,0-3.66-11.18,78.82,78.82,0,0,0-6.54-5.43L112,210.85l3.87,4.6-.12,5.82-10.58,0-12.3-3.8-.92,3-1.4-.71L89,224l2.61,1.55-1.2,3.09,5.34,3.87,5.91,1.27-6.68.07-3.8-2.32-.77,2.32,4.78,2.74A42.19,42.19,0,0,0,118.15,238l19.9,16.82Z"/><path class="cls-12" d="M138.05,254.79l8.25-20-17-7.31c1.47,5.87,1.46,12.51.43,20.3Z"/><path class="cls-2" d="M128.06,275.48c-5-2.72,2.7-17.65,2.7-17.65l16.2,6.92S133.56,278.47,128.06,275.48Z"/><path class="cls-6" d="M150,235.82l-12.09-4.74s-3.47,25.27-11.82,28.36L150,274.49Z"/><path class="cls-2" d="M209.58,292.91a4.19,4.19,0,0,0,1.07-1.79c-21.75-7.23-42.38-.76-49.05,14.1C174.57,315.09,199.21,304,209.58,292.91Z"/><path class="cls-3" d="M225.5,162l14.63,64.81L222,276.27a36.37,36.37,0,0,1-49.83,20.28l-44.1-21.07s10.69,2.81,21.94-39.66l30.09,12.94,32.63-61.6S212.7,176.29,225.5,162Z"/><line class="cls-8" x1="139.89" y1="263.91" x2="172.03" y2="279.69"/><circle class="cls-4" cx="150.42" cy="261.48" r="2.18"/><path class="cls-4" d="M165.19,268.28A2.18,2.18,0,1,1,163,266.1,2.18,2.18,0,0,1,165.19,268.28Z"/><line class="cls-8" x1="180.09" y1="248.76" x2="199.41" y2="257.38"/><line class="cls-8" x1="185.09" y1="247.91" x2="204.98" y2="248.76"/><path class="cls-2" d="M230,182.15c-1.28,4.24-4.26,16.86-1.61,36.58a16.14,16.14,0,0,1-.64,7.27c-4.61,13.79-1.26,26.76.74,32.45l11.6-31.6Z"/><polyline class="cls-13" points="91.99 220.46 104.3 224.85 108.61 225.23"/><polyline class="cls-13" points="91.65 225.59 99.89 229.21 107.16 229.87"/><line class="cls-13" x1="109.22" y1="223.5" x2="106.59" y2="232.68"/><path class="cls-13" d="M108.61,231.78c2.72-2.1,7.73-4.44,12.33-1.4"/><path class="cls-5" d="M474,259.44c5.73-3.14-6.08-30.74-6.08-30.74l-10,4.29S468.22,262.61,474,259.44Z"/><path class="cls-11" d="M453.78,234.78l21.82-9.4a12.65,12.65,0,0,1,3.66-11.18,78.82,78.82,0,0,1,6.54-5.43l2.24,2.08-3.87,4.6.12,5.82,10.58,0,12.3-3.8.92,3,1.4-.71L511,224l-2.61,1.55,1.2,3.09-5.34,3.87-5.91,1.27,6.68.07,3.8-2.32.77,2.32-4.78,2.74A42.21,42.21,0,0,1,481.93,238L462,254.79Z"/><path class="cls-12" d="M462,254.79l-8.25-20,17-7.31c-1.47,5.87-1.45,12.51-.42,20.3Z"/><path class="cls-2" d="M472,275.48c5-2.72-2.69-17.65-2.69-17.65l-16.2,6.92S466.52,278.47,472,275.48Z"/><path class="cls-6" d="M450.08,235.82l12.09-4.74s3.47,25.27,11.81,28.36l-23.9,15.05Z"/><path class="cls-2" d="M390.5,292.91a4.33,4.33,0,0,1-1.08-1.79c21.75-7.23,42.39-.76,49.06,14.1C425.51,315.09,400.87,304,390.5,292.91Z"/><path class="cls-3" d="M374.57,162,360,226.85l18.14,49.42a36.36,36.36,0,0,0,49.82,20.28L472,275.48s-10.68,2.81-21.93-39.66L420,248.76l-32.62-61.6S387.38,176.29,374.57,162Z"/><line class="cls-8" x1="460.19" y1="263.91" x2="428.05" y2="279.69"/><circle class="cls-4" cx="449.66" cy="261.48" r="2.18"/><path class="cls-4" d="M434.88,268.28a2.18,2.18,0,1,0,2.18-2.18A2.19,2.19,0,0,0,434.88,268.28Z"/><line class="cls-8" x1="419.98" y1="248.76" x2="400.67" y2="257.38"/><line class="cls-8" x1="414.99" y1="247.91" x2="395.09" y2="248.76"/><path class="cls-2" d="M370,182.15c1.29,4.24,4.27,16.86,1.62,36.58a16.14,16.14,0,0,0,.63,7.27c4.62,13.79,1.27,26.76-.73,32.45L360,226.85Z"/><polyline class="cls-13" points="508.08 220.46 495.78 224.85 491.47 225.23"/><polyline class="cls-13" points="508.43 225.59 500.19 229.21 492.92 229.87"/><line class="cls-13" x1="490.86" y1="223.5" x2="493.48" y2="232.68"/><path class="cls-13" d="M491.47,231.78c-2.72-2.1-7.74-4.44-12.33-1.4"/><polygon class="cls-11" points="311.72 122.66 300 122.66 288.28 122.66 287.06 144.6 300 152.19 312.94 144.6 311.72 122.66"/><polygon class="cls-14" points="303.14 158.38 296.86 158.38 293.88 148.3 306.11 148.3 303.14 158.38"/><path class="cls-12" d="M304.45,137.93a20.56,20.56,0,0,0,8-1.84l-.74-13.43H288.28l-.37,6.67A21.69,21.69,0,0,0,304.45,137.93Z"/><ellipse class="cls-12" cx="282.22" cy="114.53" rx="5.05" ry="5.84" transform="translate(-21.07 142.52) rotate(-27.36)"/><path class="cls-15" d="M279.34,113.69c.71-3.12,4.1-3.43,6.92.16"/><path class="cls-12" d="M313.29,112.21c-1.48,2.86-.67,6.23,1.81,7.51s5.69,0,7.17-2.86.67-6.23-1.8-7.51S314.78,109.35,313.29,112.21Z"/><path class="cls-15" d="M320.66,113.69c-.71-3.12-4.1-3.43-6.92.16"/><path class="cls-11" d="M315.77,105.9a10.47,10.47,0,0,1-2.49-8.51h0a2.15,2.15,0,0,0-2.12-2.48H288.84a2.15,2.15,0,0,0-2.12,2.48h0a10.47,10.47,0,0,1-2.49,8.51l-1.39,1.58c.94,19.5,12.38,23.81,17.16,23.81s16.22-4.31,17.16-23.81Z"/><path class="cls-16" d="M289.55,108.23c1.5,2,4.74,1.92,6.85-.19"/><path class="cls-17" d="M288.43,103.63a8,8,0,0,1,8.34,0"/><path class="cls-16" d="M310.45,108.23c-1.5,2-4.74,1.92-6.85-.19"/><path class="cls-17" d="M311.57,103.63a8,8,0,0,0-8.34,0"/><polyline class="cls-13" points="299.2 106.02 299.2 113.23 302.47 112.56"/><path class="cls-17" d="M294.4,115.55s4.4,3,11.2,0"/><line class="cls-13" x1="298.06" y1="119.95" x2="301.94" y2="119.95"/><polygon class="cls-6" points="298.48 148.3 294.3 157.25 280.73 147.04 284.23 140.63 298.48 148.3"/><polygon class="cls-6" points="301.52 148.3 305.7 157.25 319.27 147.04 315.77 140.63 301.52 148.3"/><path class="cls-14" d="M303.14,158.38h-6.28s.51,17.06,5.48,26.06c8.87,16.07,28.41,12.75,33.38,20.16s10.31,18.75,33.94,15.28l14.43-14.15-15-6.94s-10.22,4.31-17-3.38-12.56-10.12-22-9.84S305.06,180.6,303.14,158.38Z"/><path class="cls-18" d="M304.08,164.4a43.2,43.2,0,0,1-.94-6h-6.28s0,.2,0,.56A34.22,34.22,0,0,1,304.08,164.4Z"/></g></svg>